HIERARCHY
ROOT root
{
  OFFSET 0 93.2929 0
  CHANNELS 6 Xposition Yposition Zposition Zrotation Xrotation Yrotation
  JOINT torso_1
  {
    OFFSET 0 5.07867 -1.15138
    CHANNELS 6 Xposition Yposition Zposition Zrotation Xrotation Yrotation
    JOINT torso_2
    {
      OFFSET 0 5.61661 1.07143
      CHANNELS 6 Xposition Yposition Zposition Zrotation Xrotation Yrotation
      JOINT torso_3
      {
        OFFSET -1.02604e-17 5.98978 0.11501
        CHANNELS 6 Xposition Yposition Zposition Zrotation Xrotation Yrotation
        JOINT torso_4
        {
          OFFSET -1.10457e-17 6.50583 -0.443523
          CHANNELS 6 Xposition Yposition Zposition Zrotation Xrotation Yrotation
          JOINT torso_5
          {
            OFFSET -1.97295e-17 7.60548 -1.50593
            CHANNELS 6 Xposition Yposition Zposition Zrotation Xrotation Yrotation
            JOINT torso_6
            {
              OFFSET -2.53307e-17 9.49737 -0.914492
              CHANNELS 6 Xposition Yposition Zposition Zrotation Xrotation Yrotation
              JOINT torso_7
              {
                OFFSET -2.90401e-17 10.5513 1.57691
                CHANNELS 6 Xposition Yposition Zposition Zrotation Xrotation Yrotation
                JOINT neck_1
                {
                  OFFSET -1.29193e-17 4.78644 0.715339
                  CHANNELS 6 Xposition Yposition Zposition Zrotation Xrotation Yrotation
                  JOINT neck_2
                  {
                    OFFSET -1.8116e-17 4.82109 0.421791
                    CHANNELS 6 Xposition Yposition Zposition Zrotation Xrotation Yrotation
                    JOINT head
                    {
                      OFFSET -2.00958e-17 4.83041 0.765062
                      CHANNELS 6 Xposition Yposition Zposition Zrotation Xrotation Yrotation
                      End Site
                      {
                        OFFSET 0 0.1 0
                      }
                    }
                  }
                }
                JOINT l_shoulder
                {
                  OFFSET 1.23299 -7.60731 7.53374
                  CHANNELS 6 Xposition Yposition Zposition Zrotation Xrotation Yrotation
                  JOINT l_up_arm
                  {
                    OFFSET 12.9547 3.2495 -3.26872
                    CHANNELS 6 Xposition Yposition Zposition Zrotation Xrotation Yrotation
                    JOINT l_low_arm
                    {
                      OFFSET 29.2081 0.0598081 0.137039
                      CHANNELS 6 Xposition Yposition Zposition Zrotation Xrotation Yrotation
                      JOINT l_hand
                      {
                        OFFSET 24.234 0.0496219 0.113701
                        CHANNELS 6 Xposition Yposition Zposition Zrotation Xrotation Yrotation
                        End Site
                        {
                          OFFSET 0.1 0 0
                        }
                      }
                    }
                  }
                }
                JOINT r_shoulder
                {
                  OFFSET -1.23299 -7.60729 7.53365
                  CHANNELS 6 Xposition Yposition Zposition Zrotation Xrotation Yrotation
                  JOINT r_up_arm
                  {
                    OFFSET -12.9547 3.2495 -3.26872
                    CHANNELS 6 Xposition Yposition Zposition Zrotation Xrotation Yrotation
                    JOINT r_low_arm
                    {
                      OFFSET -29.2081 0.0598081 0.137039
                      CHANNELS 6 Xposition Yposition Zposition Zrotation Xrotation Yrotation
                      JOINT r_hand
                      {
                        OFFSET -24.234 0.0496218 0.113702
                        CHANNELS 6 Xposition Yposition Zposition Zrotation Xrotation Yrotation
                        End Site
                        {
                          OFFSET -0.1 0 0
                        }
                      }
                    }
                  }
                }
              }
            }
          }
        }
      }
    }
  }
  JOINT l_up_leg
  {
    OFFSET 9.23673 -4.20556 2.0327
    CHANNELS 6 Xposition Yposition Zposition Zrotation Xrotation Yrotation
    JOINT l_low_leg
    {
      OFFSET -0.852353 -38.7721 -0.655187
      CHANNELS 6 Xposition Yposition Zposition Zrotation Xrotation Yrotation
      JOINT l_foot
      {
        OFFSET -2.32622 -40.4017 -6.04875
        CHANNELS 6 Xposition Yposition Zposition Zrotation Xrotation Yrotation
        JOINT l_toes
        {
          OFFSET 0.779096 -9.8844 12.4959
          CHANNELS 6 Xposition Yposition Zposition Zrotation Xrotation Yrotation
          End Site
          {
            OFFSET 0 0 0.1
          }
        }
      }
    }
  }
  JOINT r_up_leg
  {
    OFFSET -9.23673 -4.20556 2.0327
    CHANNELS 6 Xposition Yposition Zposition Zrotation Xrotation Yrotation
    JOINT r_low_leg
    {
      OFFSET 0.852353 -38.7721 -0.655187
      CHANNELS 6 Xposition Yposition Zposition Zrotation Xrotation Yrotation
      JOINT r_foot
      {
        OFFSET 2.32622 -40.4017 -6.04875
        CHANNELS 6 Xposition Yposition Zposition Zrotation Xrotation Yrotation
        JOINT r_toes
        {
          OFFSET -0.779096 -9.8844 12.4959
          CHANNELS 6 Xposition Yposition Zposition Zrotation Xrotation Yrotation
          End Site
          {
            OFFSET 0 0 0.1
          }
        }
      }
    }
  }
}
MOTION
Frames: 4
Frame Time: 0.016667
-13.4439 82.9787 -11.225 -8.5619 34.4208 24.8602 0 5.07867 -1.15138 -2.64711 0.863842 0.286065 0 5.61661 1.07143 -2.51067 0.748508 -0.0208577 -1.02604e-17 5.98978 0.11501 -2.13164 1.68345 -0.0334348 -1.10457e-17 6.50583 -0.443523 -1.67792 3.12603 -0.0715755 -1.97295e-17 7.60548 -1.50593 -1.17787 3.86048 0.287721 -2.53307e-17 9.49737 -0.914492 -0.571164 4.31313 0.486868 -2.90401e-17 10.5513 1.57691 0.00270234 0.0452619 0.0126529 -1.29193e-17 4.78644 0.715339 -0.442735 -17.6419 1.10157 -1.8116e-17 4.82109 0.421791 -4.02958 -20.7527 0.326383 -2.00958e-17 4.83041 0.765062 -2.80869 -19.3001 -1.91693 1.23299 -7.60731 7.53374 6.92695 -0.466068 -1.93532 12.9547 3.2495 -3.26872 -78.1628 10.1891 -26.0218 29.2081 0.0598081 0.137039 5.70567 -1.4239 -28.5984 24.234 0.0496219 0.113701 -2.00189 -23.5739 -1.66282 -1.23299 -7.60729 7.53365 -3.37001 0.537745 1.09499 -12.9547 3.2495 -3.26872 79.2865 13.0709 22.642 -29.2081 0.0598081 0.137039 -6.5309 -1.9118 33.1952 -24.234 0.0496218 0.113702 2.27615 -19.9777 0.773355 9.23673 -4.20556 2.0327 -7.02986 -70.8801 -24.3389 -0.852353 -38.7721 -0.655187 -17.0504 48.496 6.81031 -2.32622 -40.4017 -6.04875 -1.30019 -14.2403 16.8017 0.779096 -9.8844 12.4959 -8.22013e-17 -8.01321e-16 1.86067e-17 -9.23673 -4.20556 2.0327 -29.5931 -70.7488 -13.7564 0.852353 -38.7721 -0.655187 19.583 52.3448 -8.69314 2.32622 -40.4017 -6.04875 -5.76431 -18.0374 -17.0039 -0.779096 -9.8844 12.4959 -9.93923e-16 -5.46658e-16 -1.27222e-14 
-13.729 81.6022 -11.3657 -8.8494 34.3636 24.9411 0 5.07867 -1.15138 -2.5529 1.14822 0.314826 0 5.61661 1.07143 -2.42629 0.995895 0.0163812 -1.02604e-17 5.98978 0.11501 -2.06964 1.88483 0.0022654 -1.10457e-17 6.50583 -0.443523 -1.64164 3.26169 -0.0356046 -1.97295e-17 7.60548 -1.50593 -1.16693 3.93583 0.310427 -2.53307e-17 9.49737 -0.914492 -0.577916 4.36452 0.507142 -2.90401e-17 10.5513 1.57691 0.00291498 0.0426129 0.0136417 -1.29193e-17 4.78644 0.715339 -0.552892 -17.4432 0.906061 -1.8116e-17 4.82109 0.421791 -4.18748 -21.4882 0.236791 -2.00958e-17 4.83041 0.765062 -2.95644 -20.5691 -2.06492 1.23299 -7.60731 7.53374 7.287 -0.611479 -2.03741 12.9547 3.2495 -3.26872 -78.2394 10.1816 -26.5022 29.2081 0.0598081 0.137039 5.81184 -1.48174 -29.1784 24.234 0.0496219 0.113701 -2.00919 -23.9464 -1.63421 -1.23299 -7.60729 7.53365 -3.86949 0.370069 1.05282 -12.9547 3.2495 -3.26872 79.192 12.9068 23.1736 -29.2081 0.0598081 0.137039 -6.61273 -1.96518 33.6632 -24.234 0.0496218 0.113702 2.27147 -19.6659 0.528924 9.23673 -4.20556 2.0327 -9.44618 -73.2738 -28.0141 -0.852353 -38.7721 -0.655187 -19.522 52.2597 8.64644 -2.32622 -40.4017 -6.04875 -0.80616 -15.4908 17.0249 0.779096 -9.8844 12.4959 -7.44817e-16 -8.32381e-16 4.96668e-17 -9.23673 -4.20556 2.0327 -31.7258 -72.8797 -15.8604 0.852353 -38.7721 -0.655187 22.1344 55.6085 -10.6971 2.32622 -40.4017 -6.04875 -6.71345 -19.1211 -17.0855 -0.779096 -9.8844 12.4959 -9.93923e-16 -5.46658e-16 -1.27222e-14 
-13.9603 80.1177 -11.3246 -9.03616 33.8 24.8447 0 5.07867 -1.15138 -2.46994 1.38653 0.3576 0 5.61661 1.07143 -2.34255 1.21555 0.0649952 -1.02604e-17 5.98978 0.11501 -1.99995 2.06806 0.0484367 -1.10457e-17 6.50583 -0.443523 -1.59326 3.38632 0.0110976 -1.97295e-17 7.60548 -1.50593 -1.13866 4.00444 0.339387 -2.53307e-17 9.49737 -0.914492 -0.566053 4.40749 0.526658 -2.90401e-17 10.5513 1.57691 0.00315134 0.0403731 0.0146342 -1.29193e-17 4.78644 0.715339 -0.619951 -16.9028 0.790735 -1.8116e-17 4.82109 0.421791 -4.18619 -22.0632 0.190294 -2.00958e-17 4.83041 0.765062 -3.01665 -21.8136 -2.13465 1.23299 -7.60731 7.53374 7.63799 -0.72266 -2.05586 12.9547 3.2495 -3.26872 -78.448 10.4497 -26.5094 29.2081 0.0598081 0.137039 5.89048 -1.52549 -29.61 24.234 0.0496219 0.113701 -1.81603 -24.4841 -1.60374 -1.23299 -7.60729 7.53365 -4.28162 0.252238 0.969204 -12.9547 3.2495 -3.26872 79.3388 13.0514 23.371 -29.2081 0.0598081 0.137039 -6.67137 -2.00402 34.0001 -24.234 0.0496218 0.113702 2.15097 -19.2391 0.210309 9.23673 -4.20556 2.0327 -12.2626 -75.0755 -32.2732 -0.852353 -38.7721 -0.655187 -22.5972 56.1435 11.0701 -2.32622 -40.4017 -6.04875 -0.243465 -16.7921 17.2568 0.779096 -9.8844 12.4959 -7.45443e-16 -8.32411e-16 4.96962e-17 -9.23673 -4.20556 2.0327 -32.1676 -74.6329 -16.161 0.852353 -38.7721 -0.655187 25.2221 58.8926 -13.233 2.32622 -40.4017 -6.04875 -7.82885 -20.2294 -17.2091 -0.779096 -9.8844 12.4959 -6.62928e-16 -5.57001e-16 -1.27429e-14 
-14.1646 78.5938 -11.1849 -9.1767 33.3508 24.7496 0 5.07867 -1.15138 -2.41058 1.55125 0.395387 0 5.61661 1.07143 -2.27923 1.36951 0.108362 -1.02604e-17 5.98978 0.11501 -1.94495 2.2021 0.09021 -1.10457e-17 6.50583 -0.443523 -1.55303 3.48586 0.0534447 -1.97295e-17 7.60548 -1.50593 -1.11186 4.0676 0.364999 -2.53307e-17 9.49737 -0.914492 -0.550812 4.45335 0.540927 -2.90401e-17 10.5513 1.57691 0.00337335 0.0382084 0.0158289 -1.29193e-17 4.78644 0.715339 -0.678676 -16.5396 0.669985 -1.8116e-17 4.82109 0.421791 -4.13062 -22.4747 0.136268 -2.00958e-17 4.83041 0.765062 -3.02865 -22.8164 -2.12083 1.23299 -7.60731 7.53374 7.93553 -0.820193 -2.09263 12.9547 3.2495 -3.26872 -78.7336 10.5909 -26.3589 29.2081 0.0598081 0.137039 5.95438 -1.56162 -29.962 24.234 0.0496219 0.113701 -1.75852 -25.0527 -1.6545 -1.23299 -7.60729 7.53365 -4.54624 0.170952 0.916349 -12.9547 3.2495 -3.26872 79.5349 13.1285 23.425 -29.2081 0.0598081 0.137039 -6.70897 -2.02919 34.2168 -24.234 0.0496218 0.113702 1.97626 -18.6504 0.0161792 9.23673 -4.20556 2.0327 -15.8267 -76.8246 -36.9721 -0.852353 -38.7721 -0.655187 -26.2938 59.8899 14.1363 -2.32622 -40.4017 -6.04875 0.273428 -17.9661 17.4539 0.779096 -9.8844 12.4959 4.87483e-17 -7.9932e-16 1.66049e-17 -9.23673 -4.20556 2.0327 -31.7226 -76.5694 -15.099 0.852353 -38.7721 -0.655187 28.9506 62.097 -16.4173 2.32622 -40.4017 -6.04875 -9.01456 -21.2973 -17.3994 -0.779096 -9.8844 12.4959 -8.61084e-16 -5.50809e-16 -1.27305e-14 
